{"asset":{"version":"2.0","generator":"VECTARY"},"scene":0,"extensionsUsed":["KHR_texture_transform"],"nodes":[{"translation":[0,0,0],"scale":[0.001,0.001,0.001],"rotation":[-0.7071067811865475,0,0,0.7071067811865476],"name":"Object"},{"translation":[-0.001535192956492526,0.005614371708858547,-0.0006085985534055576],"scale":[0.0005564726877355416,0.000623242814747298,0.0008679960762921539],"rotation":[-0.4971061736021848,-0.4891781640743319,0.4936932505479788,0.5194777669186922],"name":"Pin","mesh":0}],"materials":[{"pbrMetallicRoughness":{"baseColorFactor":[1,1,1,1],"metallicFactor":0,"roughnessFactor":0.2},"name":"Object material","emissiveFactor":[0,0,0],"alphaMode":"OPAQUE","doubleSided":false},{"pbrMetallicRoughness":{"baseColorFactor":[0.25098039215686274,0.807843137254902,0.4823529411764706,1],"metallicFactor":0,"roughnessFactor":0.2},"name":"Pin material","emissiveFactor":[0,0,0],"alphaMode":"OPAQUE","doubleSided":false}],"meshes":[{"primitives":[{"mode":4,"attributes":{"POSITION":1,"NORMAL":2,"TEXCOORD_0":3},"material":1,"indices":0}]}],"accessors":[{"bufferView":0,"byteOffset":0,"componentType":5125,"count":10368,"type":"SCALAR"},{"bufferView":1,"byteOffset":0,"componentType":5126,"count":10368,"max":[6.214267253875732,43.46669387817383,99.98174285888672],"min":[-6.214268207550049,-43.46669387817383,0.018254412338137627],"type":"VEC3"},{"bufferView":2,"byteOffset":0,"componentType":5126,"count":10368,"type":"VEC3"},{"bufferView":3,"byteOffset":0,"componentType":5126,"count":10368,"type":"VEC2"}],"bufferViews":[{"buffer":0,"byteOffset":0,"byteLength":41472,"target":34963},{"buffer":0,"byteOffset":41472,"byteLength":124416,"target":34962},{"buffer":0,"byteOffset":165888,"byteLength":124416,"target":34962},{"buffer":0,"byteOffset":290304,"byteLength":82944,"target":34962}],"scenes":[{"nodes":[0,1],"name":"arrow"}],"buffers":[{"byteLength":373248,"uri":"arrow.bin"}]}